<svg xmlns="http://www.w3.org/2000/svg" width="188" height="44" fill="currentColor" viewBox="0 0 188 44"><g clip-path="url(#a)"><path d="M170.762 0v9.198l8.036 8.03-8.036 8.03v9.206L188 17.228 170.762 0ZM98.378 21.739c-1.635-1.597-4.667-2.363-7.446-2.868-2.535-.458-5.25-1.13-6.538-2.05-1.289-.92-1.85-1.845-1.85-3.3a3.92 3.92 0 0 1 1.559-3.082c1.104-.907 2.736-1.656 5.288-1.656s4.564.544 5.904 1.575a5.404 5.404 0 0 1 2.141 4.37 1.125 1.125 0 0 0 1.04 1.199 1.125 1.125 0 0 0 1.2-1.04v-.159c0-2.726-1.011-4.948-2.925-6.42-1.815-1.4-4.423-2.14-7.54-2.14a11.073 11.073 0 0 0-7.04 2.392 6.255 6.255 0 0 0-2.29 4.982c0 2.795 1.319 4.709 3.913 6.036a24.18 24.18 0 0 0 6.449 1.823c2.517.394 4.778 1.087 5.725 1.776 1.241.89 1.85 1.973 1.85 3.291 0 1.674-.759 2.967-2.347 3.964-1.589.997-3.657 1.434-6.508 1.434-3.156 0-6.466-.548-7.862-1.614-1.678-1.284-2.847-2.876-2.847-4.845V13.83a7.596 7.596 0 0 0-7.592-7.597h-4.376c-3.121 0-5.724.745-7.536 2.14a7.203 7.203 0 0 0-1.507 1.554c-1.332-2.32-3.97-3.707-7.09-3.707H39.82a2.317 2.317 0 0 0-2.313 2.303V32.29a2.313 2.313 0 0 0 2.313 2.298h9.813c3.708 0 6.813-1.562 8.363-4.207 1.545 2.61 4.573 4.117 8.34 4.117 6.038 0 8.958-3.026 10.213-4.952 1.652 3.189 5.309 4.952 12.417 4.952s11.483-2.936 11.483-8.038a6.24 6.24 0 0 0-2.072-4.721ZM40.146 9.69c0-.47.385-.856.856-.856h9.253c3.092 0 5.327 1.986 5.327 4.709 0 2.722-2.081 4.708-4.946 4.708h-9.655a.859.859 0 0 1-.857-.856l.022-7.705Zm14.7 20.442c-.086.09-.18.176-.27.257a7.095 7.095 0 0 1-4.62 1.558h-8.992a.859.859 0 0 1-.857-.856v-9.416a.86.86 0 0 1 .857-.856h8.825c2.089 0 3.806.548 4.95 1.592a5.447 5.447 0 0 1 .123 7.704l-.017.017Zm20.839-6.471a7.824 7.824 0 0 1-2.227 5.564c-1.683 1.78-4.093 2.658-7.133 2.658-2.21 0-3.824-.522-5.091-1.665a4.774 4.774 0 0 1-1.657-3.745 4.622 4.622 0 0 1 1.755-3.805c1.49-1.164 3.58-1.802 5.905-1.802 3.973 0 6.795-.21 8.448-1.229v4.024Zm0-7.482c-.651 1.982-3.349 2.085-8.453 2.085a12.738 12.738 0 0 0-5.844 1.284 8.425 8.425 0 0 0-3.301 2.944 7.5 7.5 0 0 0-3.28-3.12 6.773 6.773 0 0 0 3.284-5.098c.004-.107.026-.218.056-.32.03-.202.05-.377.064-.429a5.274 5.274 0 0 1 2-3.094c1.335-1.032 3.378-1.575 5.904-1.575h3.768a6.676 6.676 0 0 1 4.068 1.232 4.534 4.534 0 0 1 1.755 3.758l-.021 2.333ZM103.855.188a1.807 1.807 0 0 0-1.799 1.815v.039A1.864 1.864 0 0 0 104 3.809a1.86 1.86 0 0 0 1.768-1.767 1.906 1.906 0 0 0-1.913-1.854Zm.055 5.992c-.728 0-1.314.591-1.319 1.319v25.766c0 .732.596 1.323 1.323 1.323.728 0 1.319-.59 1.324-1.323V7.49a1.325 1.325 0 0 0-1.328-1.31Zm48.521 25.737v-.056h-.942a1.846 1.846 0 0 1-1.845-1.836V13.83a7.613 7.613 0 0 0-7.617-7.597h-11.433a1.127 1.127 0 0 0 0 2.251h10.238a7.024 7.024 0 0 1 4.282 1.421 4.924 4.924 0 0 1 1.956 3.947v2.332c-.65 1.982-3.348 2.085-8.452 2.085-2.997 0-5.545.787-7.407 2.29a7.528 7.528 0 0 0-2.895 5.5c-.338 2.225-1.764 3.424-2.976 4.241a10.74 10.74 0 0 1-5.831 1.678c-1.82 0-4.406-.402-6.402-2.307-1.995-1.905-3.095-5.05-3.095-9.224 0-4.75 1.511-8.316 4.281-10.058a12.508 12.508 0 0 1 6.787-1.9h5.027a1.127 1.127 0 0 0 0-2.251h-5.566c-2.009 0-4.942.346-7.566 2.028a11.621 11.621 0 0 0-3.952 4.49c-1.114 2.11-1.653 4.708-1.653 7.704 0 5.564 1.554 9.416 4.753 11.805a12.223 12.223 0 0 0 7.377 2.375c1.931 0 3.837-.398 5.605-1.172a10.593 10.593 0 0 0 4.162-3.176 7.884 7.884 0 0 0 3.061 2.996 11 11 0 0 0 5.365 1.284c5.019 0 7.883-2.072 9.42-3.9.351 2.166 1.991 3.515 4.346 3.515h.972a1.127 1.127 0 0 0 0-2.247v-.022Zm-5.373-8.282a7.764 7.764 0 0 1-2.235 5.564c-1.675 1.806-4.09 2.684-7.117 2.684-2.213 0-3.823-.522-5.095-1.665a4.754 4.754 0 0 1-1.649-3.745 4.62 4.62 0 0 1 1.773-3.827c1.482-1.164 3.571-1.802 5.905-1.802 3.969 0 6.791-.21 8.439-1.228l-.021 4.019Zm10.122 8.655a.86.86 0 0 0 .21-.03.414.414 0 0 0 .162-.095.351.351 0 0 0 .107-.158.54.54 0 0 0 .039-.231.48.48 0 0 0-.197-.428 1.05 1.05 0 0 0-.578-.133h-.745v1.93h.394v-.856h.248l.475.857h.429l-.544-.857Zm-.608-.279v-.513h.338a.73.73 0 0 1 .137 0c.043 0 .09.012.128.03a.357.357 0 0 1 .099.077.237.237 0 0 1 .038.12c0 .124-.038.196-.119.23a.66.66 0 0 1-.274.044l-.347.012Z"/><path d="M156.884 29.721a2.448 2.448 0 1 0-.017 4.897 2.448 2.448 0 1 0 .017-4.897Zm0 4.28a1.859 1.859 0 0 1-.008-3.715c1.027 0 1.858.826 1.862 1.854a1.854 1.854 0 0 1-1.819 1.887h-.035v-.025ZM18.84 18.114a1.469 1.469 0 0 0-.514.616.206.206 0 0 0-.051.154 157.74 157.74 0 0 0-2.09 3.544 120.658 120.658 0 0 1-2.106 3.544c-.617.959-1.268 1.9-1.953 2.825-.72.856-1.319 1.344-1.798 1.464a4.727 4.727 0 0 1-.977.18 2.067 2.067 0 0 1-1.438-.566c-.514-.445-.771-1.215-.771-2.31v-.206c.026-1.28.257-2.547.694-3.75a9.954 9.954 0 0 1 1.978-3.235 4.273 4.273 0 0 1 2.055-1.361 8.33 8.33 0 0 1 2.107-.283c.222 0 .445.017.668.051h.205c.176.005.351-.03.514-.102.193-.116.355-.274.48-.463a48.237 48.237 0 0 0 2.826-5.162 26.44 26.44 0 0 0 1.284-3.672c.308-1.164.84-2.808 1.593-4.93.411-.96.84-1.482 1.285-1.567.27-.06.543-.103.822-.129.59.013 1.156.249 1.575.668.493.398.758 1.01.72 1.644 0 .171-.018.342-.052.513-.103.548-.205 1.079-.308 1.593a455.252 455.252 0 0 0-2.544 14.552c-.77 4.884-1.28 9.802-1.515 14.741a5.813 5.813 0 0 0-.052.77 38.224 38.224 0 0 0-.102 2.825c0 .96.034 1.9.102 2.825a1.01 1.01 0 0 1-.36.856 1.246 1.246 0 0 1-.719.257h-.205c-.343-.068-.582-.342-.72-.822a42.32 42.32 0 0 1-.95-6.214c-.188-2.26-.283-4.178-.283-5.753v-1.54c.137-3.665.36-7.328.668-10.992v-.103a.532.532 0 0 0 .052-.257.286.286 0 0 0-.12-.205Zm-8.204 8.628a52.495 52.495 0 0 0 2.826-4.52c.24-.41.462-.826.668-1.25a.429.429 0 0 0 .103-.307.43.43 0 0 0-.052-.206c-.171-.308-.342-.462-.513-.462a.697.697 0 0 0-.514.308 12.443 12.443 0 0 0-2.518 6.438Zm-10.585.223.103-1.644c.069-1.712.21-3.424.428-5.136.103-1.143.317-1.836.643-2.08a2.754 2.754 0 0 1 1.67-.385h.53c.891 0 1.405.085 1.542.257a.88.88 0 0 1 .205.565c-.025.39-.11.77-.257 1.13a55.266 55.266 0 0 0-1.832 10.05c-.064.577-.09 1.164-.086 1.746a6.154 6.154 0 0 1-.308 1.849c-.21.445-.66.723-1.148.719-.48 0-.822-.287-1.027-.856a8.482 8.482 0 0 1-.36-1.593A30.196 30.196 0 0 1 0 28.54c0-.514.017-1.04.051-1.575Zm1.799-15.1v-.634c0-.41.154-.616.462-.616a7.51 7.51 0 0 1 2.466.513c.24.069.382.155.429.257.03.082.047.171.051.257a1.252 1.252 0 0 1-.12.462c-.214.826-.355 1.67-.428 2.517-.034.377-.188.565-.462.565h-.189c-.788-.034-1.319-.206-1.593-.514-.274-.308-.462-.976-.565-2.003v-.513a.95.95 0 0 1-.051-.309v.018Z"/></g><defs><clipPath id="a"><path d="M0 0h188v44H0z"/></clipPath></defs></svg>